<svg xmlns="http://www.w3.org/2000/svg" width="128" height="128" viewBox="0 0 128 128">
  <defs>
    <linearGradient id="grad" x1="0%" y1="0%" x2="100%" y2="100%">
      <stop offset="0%" style="stop-color:#667eea"/>
      <stop offset="100%" style="stop-color:#764ba2"/>
    </linearGradient>
    <filter id="shadow" x="-20%" y="-20%" width="140%" height="140%">
      <feDropShadow dx="0" dy="4" stdDeviation="8" flood-opacity="0.3"/>
    </filter>
  </defs>
  <circle cx="64" cy="64" r="56" fill="url(#grad)" filter="url(#shadow)"/>
  <path d="M64 32c-7.18 0-13 5.82-13 13v26c0 7.18 5.82 13 13 13s13-5.82 13-13V45c0-7.18-5.82-13-13-13zm26 32c0 14.36-11.64 26-26 26s-26-11.64-26-26h-8c0 17.21 12.63 31.46 29 34.04V106h10V98.04c16.37-2.58 29-16.83 29-34.04h-8z" fill="white"/>
</svg>
