<svg xmlns="http://www.w3.org/2000/svg" width="32" height="32" viewBox="0 0 32 32">
  <defs>
    <linearGradient id="grad" x1="0%" y1="0%" x2="100%" y2="100%">
      <stop offset="0%" style="stop-color:#667eea"/>
      <stop offset="100%" style="stop-color:#764ba2"/>
    </linearGradient>
  </defs>
  <circle cx="16" cy="16" r="14" fill="url(#grad)"/>
  <path d="M16 8c-1.66 0-3 1.34-3 3v6c0 1.66 1.34 3 3 3s3-1.34 3-3v-6c0-1.66-1.34-3-3-3zm6 7c0 3.31-2.69 6-6 6s-6-2.69-6-6H8c0 3.72 2.56 6.82 6 7.72V26h4v-3.28c3.44-.9 6-4 6-7.72h-2z" fill="white"/>
</svg>
