<svg xmlns="http://www.w3.org/2000/svg" width="16" height="16" viewBox="0 0 16 16">
  <defs>
    <linearGradient id="grad" x1="0%" y1="0%" x2="100%" y2="100%">
      <stop offset="0%" style="stop-color:#667eea"/>
      <stop offset="100%" style="stop-color:#764ba2"/>
    </linearGradient>
  </defs>
  <circle cx="8" cy="8" r="7" fill="url(#grad)"/>
  <path d="M8 4C7.17 4 6.5 4.67 6.5 5.5v3c0 .83.67 1.5 1.5 1.5s1.5-.67 1.5-1.5v-3C9.5 4.67 8.83 4 8 4zm3 3.5c0 1.66-1.34 3-3 3s-3-1.34-3-3H4c0 1.86 1.28 3.41 3 3.86V13h2v-1.64c1.72-.45 3-2 3-3.86h-1z" fill="white"/>
</svg>
